<svg width="318" height="163" viewBox="0 0 318 163" fill="none" xmlns="http://www.w3.org/2000/svg">
<path opacity="0.15" d="M144.798 151.102C157.033 145.3 167.836 137.638 179.354 130.937C207.285 114.735 239.362 104.203 273.029 100.182C283.562 98.942 295.298 97.884 302.287 91.1837C305.435 87.937 307.494 84.0497 308.251 79.9202C311.796 63.8371 302.082 47.2304 287.594 36.2341C273.105 25.2378 254.406 18.9542 235.797 13.8568C199.589 3.95046 161.295 -2.33315 123.373 0.819342C85.4499 3.97183 47.7832 17.3405 23.1456 41.5773C12.5994 51.9325 4.51056 64.2432 1.38766 77.5799C-5.40848 106.433 13.3929 137.552 43.9052 152.257C74.4174 166.961 114.183 165.647 144.798 151.102Z" fill="#FFB93E"/>
<path d="M64.2308 80.655C64.2308 80.655 60.6087 76.4296 64.0076 73.7451C64.0076 73.7451 66.4903 72.2426 68.5149 72.3644C68.5149 72.3644 65.6467 77.1739 66.5747 77.6523C67.5026 78.1307 69.3842 72.0622 69.3842 72.0622C69.3842 72.0622 75.0341 71.5144 76.8515 72.3879C76.8515 72.3879 72.0217 76.3399 73.0394 76.5748C74.057 76.8098 79.2734 72.9314 79.2734 72.9314C79.2734 72.9314 84.5314 73.8262 84.2506 77.034C83.9697 80.2418 82.1587 81.2317 81.3621 81.1473C80.5655 81.0619 75.9076 79.2839 75.8061 79.9364C75.7047 80.5888 78.5088 82.7213 80.4726 82.8206C80.4726 82.8206 76.765 86.9094 74.3015 85.7294C71.838 84.5494 71.6277 82.6797 70.0921 81.9781C68.5566 81.2765 67.2453 81.2787 67.8796 81.9941C68.5139 82.7096 71.2934 83.4047 72.1712 84.9584C73.049 86.5121 73.837 87.5597 71.2881 87.1763C68.7392 86.793 64.596 84.9275 64.4134 82.7918L64.2318 80.6561L64.2308 80.655Z" fill="#C8DBF4"/>
<path d="M81.6653 77.1214C81.6653 77.1214 67.384 76.5715 64.2296 80.6549C64.2296 80.6549 63.5323 82.7436 61.386 84.6465L61.0518 85.5584C61.0518 85.5584 63.527 82.9486 64.4122 82.7917C64.4122 82.7917 63.0273 77.7312 81.6653 77.1214Z" fill="#C8DBF4"/>
<path d="M61.3867 84.6465C61.3867 84.6465 58.3209 86.9135 58.1084 90.9638L58.6647 91.014C58.6647 91.014 59.6439 86.826 61.4134 85.1879C63.1828 83.5498 61.3867 84.6465 61.3867 84.6465Z" fill="#C8DBF4"/>
<path d="M51.5657 75.3414C51.5657 75.3414 57.3277 72.1144 54.6389 67.7362C54.6389 67.7362 52.4883 65.0474 50.1828 64.3565C50.1828 64.3565 51.4119 70.8863 50.1828 71.0401C48.9537 71.1939 49.3382 63.6646 49.3382 63.6646C49.3382 63.6646 43.2686 60.7451 40.8873 60.9757C40.8873 60.9757 44.6514 67.3518 43.4224 67.198C42.1933 67.0443 37.9679 60.5913 37.9679 60.5913C37.9679 60.5913 31.7456 59.4391 30.7461 63.1264C29.7476 66.8136 31.3611 68.6578 32.2827 68.8884C33.2042 69.1191 39.12 69.0422 38.9663 69.81C38.8125 70.5777 34.8177 71.8079 32.5902 71.1159C32.5902 71.1159 35.0484 77.1844 38.2754 76.878C41.5024 76.5704 42.5008 74.5736 44.4977 74.4198C46.4956 74.266 47.9543 74.8042 46.9558 75.3414C45.9574 75.8795 42.5766 75.5175 40.9631 76.8897C39.3496 78.2608 38.0437 79.1065 41.04 79.7205C44.0364 80.3356 49.414 79.9512 50.4893 77.6468L51.5646 75.3424L51.5657 75.3414Z" fill="#C8DBF4"/>
<path d="M33.5898 64.2788C33.5898 64.2788 49.7227 69.5027 51.5669 75.3416C51.5669 75.3416 51.49 77.9535 53.1035 80.9499V82.1021C53.1035 82.1021 51.4131 78.1842 50.4916 77.646C50.4916 77.646 54.1019 72.5759 33.5898 64.2788Z" fill="#C8DBF4"/>
<path d="M53.1028 80.949C53.1028 80.949 55.5909 84.727 54.1728 89.3261L53.5332 89.1542C53.5332 89.1542 54.1546 84.0884 52.8529 81.5405C51.5513 78.9927 53.1039 80.949 53.1039 80.949H53.1028Z" fill="#C8DBF4"/>
<path d="M60.7333 70.8906C60.7333 70.8906 53.1378 66.6374 56.683 60.8647C56.683 60.8647 59.5181 57.3206 62.5561 56.4086C62.5561 56.4086 60.9362 65.0165 62.5561 65.2194C64.176 65.4222 63.6698 55.4978 63.6698 55.4978C63.6698 55.4978 71.6701 51.6493 74.8095 51.9536C74.8095 51.9536 69.8473 60.3586 71.4672 60.1567C73.0871 59.9539 78.6569 51.4475 78.6569 51.4475C78.6569 51.4475 86.86 49.9279 88.1756 54.7898C89.4923 59.6506 87.3651 62.081 86.1499 62.3853C84.9347 62.6886 77.1374 62.5882 77.3392 63.6005C77.5421 64.6128 82.8076 66.2338 85.7442 65.3219C85.7442 65.3219 82.5033 73.3221 78.2501 72.9174C73.9969 72.5127 72.6802 69.8794 70.047 69.6765C67.4137 69.4736 65.4894 70.1827 66.8061 70.8917C68.1227 71.6007 72.5788 71.1245 74.7049 72.9323C76.8309 74.7402 78.5533 75.8539 74.6034 76.6644C70.6535 77.4749 63.5652 76.9677 62.1471 73.9297L60.729 70.8917L60.7333 70.8906Z" fill="#D4E4F8"/>
<path d="M84.4291 56.3081C84.4291 56.3081 63.1631 63.1946 60.7327 70.8905C60.7327 70.8905 60.8342 74.3332 58.707 78.2831V79.8026C58.707 79.8026 60.9345 74.6375 62.1497 73.9295C62.1497 73.9295 57.3904 67.2459 84.4291 56.3092V56.3081Z" fill="#D4E4F8"/>
<path d="M58.7074 78.2831C58.7074 78.2831 55.4281 83.2635 57.2979 89.3256L58.1415 89.0992C58.1415 89.0992 57.3224 82.422 59.0384 79.0637C60.7545 75.7054 58.7074 78.2831 58.7074 78.2831Z" fill="#D4E4F8"/>
<path d="M60.4768 102.473C68.6938 102.473 75.3539 95.8117 75.3539 87.5947H45.5986C45.5986 95.8117 52.2598 102.473 60.4757 102.473H60.4768Z" fill="#D4E4F8"/>
<path d="M47.2292 101.395H73.7243C74.7377 101.395 75.5599 102.217 75.5599 103.23H45.3936C45.3936 102.217 46.2158 101.395 47.2292 101.395Z" fill="#D4E4F8"/>
<path d="M75.6922 87.5947H45.1094V88.0507H75.6922V87.5947Z" fill="#9FC1F4"/>
<path d="M137.246 151.547H137.319C137.921 151.534 138.385 151.042 138.328 150.478L134.318 110.426L130.818 110.738L136.577 151.005C136.622 151.32 136.91 151.553 137.246 151.547Z" fill="#8CB4F4"/>
<path d="M98.6295 151.547H98.5558C97.9546 151.534 97.4901 151.042 97.5467 150.478L101.557 110.426L105.057 110.738L99.2979 151.005C99.2531 151.32 98.9648 151.553 98.6295 151.547Z" fill="#8CB4F4"/>
<path d="M165.539 151.547H165.612C166.214 151.534 166.678 151.042 166.621 150.478L162.611 110.426L159.111 110.738L164.87 151.005C164.915 151.32 165.203 151.553 165.539 151.547Z" fill="#8CB4F4"/>
<path d="M99.8246 104.601L92.7064 69.4479C91.7924 64.6885 95.7369 60.336 100.857 60.4535L114.586 60.7674C119.322 60.8753 123.44 64.0457 124.756 68.5957L135.171 104.602H99.8246V104.601Z" fill="#8CB4F4"/>
<path d="M104.131 104.601L97.0131 69.4479C96.099 64.6885 100.044 60.336 105.164 60.4535L118.893 60.7674C123.629 60.8753 127.746 64.0457 129.063 68.5957L139.478 104.602H104.131V104.601Z" fill="#8CB4F4"/>
<path d="M156.124 111.012H101.808C100.712 111.012 99.8238 110.123 99.8238 109.028V104.601H156.124C157.22 104.601 158.108 105.49 158.108 106.585V109.028C158.108 110.123 157.219 111.012 156.124 111.012Z" fill="#8CB4F4"/>
<path d="M127.298 111.012H161.923C162.806 111.012 163.521 110.297 163.521 109.414V106.199C163.521 105.317 162.806 104.601 161.923 104.601H127.298C126.415 104.601 125.7 105.317 125.7 106.199V109.414C125.7 110.297 126.415 111.012 127.298 111.012Z" fill="#8CB4F4"/>
<path d="M83.6178 104.143V105.342C83.6178 105.762 83.4822 106.104 83.3156 106.104H39.5493C39.3838 106.104 39.2471 105.762 39.2471 105.342V104.143C39.2471 103.723 39.3827 103.38 39.5493 103.38H83.3156C83.4811 103.38 83.6178 103.724 83.6178 104.143Z" fill="#9ABFE2"/>
<path d="M83.6177 104.143V105.342C83.6177 105.762 83.4928 106.104 83.3412 106.104H48.5959C48.4432 106.104 48.3193 105.762 48.3193 105.342V104.143C48.3193 103.723 48.4443 103.38 48.5959 103.38H83.3412C83.4939 103.38 83.6177 103.724 83.6177 104.143Z" fill="#BAD4F4"/>
<path d="M72.5396 106.105H41.4688V151.393H72.5396V106.105Z" fill="#C8DBF4"/>
<path d="M81.2476 106.105H50.1768V151.393H81.2476V106.105Z" fill="#DFEBFD"/>
<path d="M79.5784 148.893H51.8467V107.385H79.5784V148.893ZM52.1457 148.594H79.2783V107.685H52.1457V148.594Z" fill="#B7D3F3"/>
<path d="M79.4288 121.116H51.9961V121.415H79.4288V121.116Z" fill="#B7D3F3"/>
<path d="M79.4288 135.114H51.9961V135.413H79.4288V135.114Z" fill="#B7D3F3"/>
<path d="M68.5233 110.062H63.433C63.1863 110.062 62.9834 109.86 62.9834 109.612C62.9834 109.365 63.1852 109.163 63.433 109.163H68.5233C68.77 109.163 68.9729 109.364 68.9729 109.612C68.9729 109.859 68.7711 110.062 68.5233 110.062Z" fill="#B7D3F3"/>
<path d="M68.5233 123.75H63.433C63.1863 123.75 62.9834 123.548 62.9834 123.301C62.9834 123.054 63.1852 122.851 63.433 122.851H68.5233C68.77 122.851 68.9729 123.053 68.9729 123.301C68.9729 123.547 68.7711 123.75 68.5233 123.75Z" fill="#B7D3F3"/>
<path d="M68.5233 138.021H63.433C63.1863 138.021 62.9834 137.819 62.9834 137.572C62.9834 137.325 63.1852 137.122 63.433 137.122H68.5233C68.77 137.122 68.9729 137.324 68.9729 137.572C68.9729 137.818 68.7711 138.021 68.5233 138.021Z" fill="#B7D3F3"/>
<path d="M185.9 2.38135H205.594C206.502 2.38135 207.238 3.11815 207.238 4.02475V23.0333C207.238 23.941 206.501 24.6767 205.594 24.6767H185.9C184.993 24.6767 184.257 23.9399 184.257 23.0333V4.02475C184.257 3.11709 184.994 2.38135 185.9 2.38135Z" fill="#C0D8FB"/>
<path d="M186.752 3.34766H204.74C205.569 3.34766 206.241 4.02039 206.241 4.84903V22.211C206.241 23.0396 205.569 23.7124 204.74 23.7124H186.752C185.924 23.7124 185.251 23.0396 185.251 22.211V4.84903C185.251 4.02039 185.924 3.34766 186.752 3.34766Z" fill="#DFEBFD"/>
<path d="M195.747 5.85827C196.01 5.85827 196.223 5.64505 196.223 5.38202C196.223 5.11899 196.01 4.90576 195.747 4.90576C195.484 4.90576 195.271 5.11899 195.271 5.38202C195.271 5.64505 195.484 5.85827 195.747 5.85827Z" fill="#B7D3F3"/>
<path d="M199.113 6.05499C199.241 5.82541 199.53 5.74212 199.76 5.87026C199.99 5.9984 200.073 6.28778 199.945 6.51737C199.817 6.74695 199.527 6.83024 199.298 6.7021C199.068 6.57396 198.985 6.28458 199.113 6.05499Z" fill="#B7D3F3"/>
<path d="M202.404 8.6701C202.625 8.52808 202.92 8.59108 203.062 8.81212C203.204 9.03317 203.141 9.32789 202.92 9.46991C202.699 9.61193 202.404 9.54893 202.262 9.32789C202.119 9.10685 202.183 8.81212 202.404 8.6701Z" fill="#B7D3F3"/>
<path d="M204.033 12.7168C204.296 12.7168 204.509 12.9304 204.509 13.1931C204.509 13.4557 204.296 13.6693 204.033 13.6693C203.77 13.6693 203.557 13.4557 203.557 13.1931C203.557 12.9304 203.77 12.7168 204.033 12.7168Z" fill="#B7D3F3"/>
<path d="M203.202 17.4133C203.388 17.5991 203.388 17.9002 203.202 18.086C203.016 18.2718 202.715 18.2718 202.529 18.086C202.343 17.9002 202.343 17.5991 202.529 17.4133C202.715 17.2275 203.016 17.2275 203.202 17.4133Z" fill="#B7D3F3"/>
<path d="M200.211 20.4108C200.397 20.5966 200.397 20.8978 200.211 21.0836C200.026 21.2694 199.725 21.2694 199.539 21.0836C199.353 20.8978 199.353 20.5966 199.539 20.4108C199.725 20.225 200.026 20.225 200.211 20.4108Z" fill="#B7D3F3"/>
<path d="M195.271 21.9557C195.271 21.6931 195.484 21.4795 195.747 21.4795C196.009 21.4795 196.223 21.6931 196.223 21.9557C196.223 22.2184 196.009 22.432 195.747 22.432C195.484 22.432 195.271 22.2184 195.271 21.9557Z" fill="#B7D3F3"/>
<path d="M192.366 6.05499C192.238 5.82541 191.948 5.74212 191.719 5.87026C191.489 5.9984 191.406 6.28778 191.534 6.51737C191.662 6.74695 191.951 6.83024 192.181 6.7021C192.411 6.57396 192.494 6.28458 192.366 6.05499Z" fill="#B7D3F3"/>
<path d="M189.075 8.6701C188.854 8.52808 188.559 8.59108 188.417 8.81212C188.274 9.03317 188.338 9.32789 188.559 9.46991C188.78 9.61193 189.075 9.54893 189.217 9.32789C189.359 9.10685 189.296 8.81212 189.075 8.6701Z" fill="#B7D3F3"/>
<path d="M187.445 12.7173C187.182 12.7173 186.969 12.9309 186.969 13.1935C186.969 13.4562 187.182 13.6698 187.445 13.6698C187.708 13.6698 187.921 13.4562 187.921 13.1935C187.921 12.9309 187.708 12.7173 187.445 12.7173Z" fill="#B7D3F3"/>
<path d="M188.277 17.4138C188.091 17.5996 188.091 17.9007 188.277 18.0865C188.463 18.2723 188.764 18.2723 188.95 18.0865C189.136 17.9007 189.136 17.5996 188.95 17.4138C188.764 17.228 188.463 17.228 188.277 17.4138Z" fill="#B7D3F3"/>
<path d="M191.266 20.4108C191.081 20.5966 191.081 20.8978 191.266 21.0836C191.452 21.2694 191.753 21.2694 191.939 21.0836C192.125 20.8978 192.125 20.5966 191.939 20.4108C191.753 20.225 191.452 20.225 191.266 20.4108Z" fill="#B7D3F3"/>
<path d="M195.618 13.1931C195.618 12.9304 195.832 12.7168 196.094 12.7168C196.357 12.7168 196.571 12.9304 196.571 13.1931C196.571 13.4557 196.357 13.6693 196.094 13.6693C195.832 13.6693 195.618 13.4557 195.618 13.1931Z" fill="#B7D3F3"/>
<path d="M196.16 7.24512H196.029V13.193H196.16V7.24512Z" fill="#B7D3F3"/>
<path d="M199.07 10.5595L195.917 13.0347L196.158 13.3413L199.311 10.8661L199.07 10.5595Z" fill="#B7D3F3"/>
<path d="M147.142 97.2438C144.203 102.358 140.508 104.332 140.508 104.332H125.132C125.132 104.332 149.383 93.3419 147.142 97.2438Z" fill="#233862"/>
<path d="M166.106 148.053C165.939 149.667 168.184 150.083 170.786 150.241C173.388 150.399 172.596 150.924 176.157 151.608C179.718 152.293 181.159 151.332 181.423 150.852C181.658 150.427 180.006 149.741 178.246 148.965C178.024 148.868 177.803 148.769 177.581 148.67C175.6 147.774 174.503 145.976 172.97 144.305C171.517 142.723 170.175 137.69 170.175 137.69L165.338 136.603C165.338 136.603 166.651 141.134 167.103 143.067C167.369 144.204 166.945 145.467 166.57 146.428C166.368 146.951 166.164 147.486 166.107 148.055L166.106 148.053Z" fill="#FFB27D"/>
<path d="M170.787 150.241C173.389 150.399 172.597 150.923 176.158 151.608C179.719 152.292 181.16 151.331 181.423 150.852C181.658 150.427 180.006 149.74 178.247 148.965L178.219 148.995C178.219 148.995 175.701 149.82 172.813 149.001C170.46 148.335 168.193 146.9 166.571 146.427C166.369 146.95 166.165 147.485 166.107 148.053C165.941 149.667 168.185 150.083 170.788 150.241H170.787Z" fill="#0F2549"/>
<path d="M158.776 92.0046C156.173 90.1764 138.953 86.9185 130.166 85.9756L120.453 77.5439C120.453 77.5439 112.186 89.7888 112.119 99.157C112.089 103.525 114.1 103.959 114.101 103.96C114.101 103.96 145.238 104.191 146.603 104.332C148.837 104.562 151.784 110.128 152.52 115.197C153.257 120.266 166.241 140.883 166.241 140.883C166.241 140.883 168.949 141.75 170.2 141.677C171.547 141.598 172.17 141.147 172.17 141.147C172.17 141.147 164.646 96.1275 158.775 92.0056L158.776 92.0046Z" fill="#233862"/>
<path d="M158.052 148.053C157.885 149.667 160.13 150.083 162.732 150.241C165.335 150.399 164.542 150.924 168.104 151.608C171.665 152.293 173.105 151.332 173.369 150.852C173.604 150.427 171.952 149.741 170.192 148.965C169.971 148.868 169.749 148.769 169.527 148.67C167.546 147.774 166.45 145.976 164.916 144.305C163.464 142.723 162.122 137.69 162.122 137.69L157.283 136.603C157.283 136.603 158.597 141.134 159.048 143.067C159.314 144.204 158.89 145.467 158.515 146.428C158.314 146.951 158.11 147.486 158.052 148.055V148.053Z" fill="#FFB27D"/>
<path d="M162.733 150.241C165.335 150.399 164.543 150.923 168.104 151.608C171.665 152.292 173.106 151.331 173.37 150.852C173.605 150.427 171.953 149.74 170.193 148.965L170.165 148.995C170.165 148.995 167.647 149.82 164.76 149.001C162.406 148.335 160.139 146.9 158.517 146.427C158.315 146.95 158.111 147.485 158.054 148.053C157.887 149.667 160.132 150.083 162.734 150.241H162.733Z" fill="#233862"/>
<path d="M150.651 92.0046C148.39 90.4167 141.588 89.1855 134.08 88.2714C132.004 88.0184 130.3 86.5095 129.792 84.4806L112.328 77.5439C112.328 77.5439 104.061 89.7888 103.994 99.157C103.964 103.525 105.975 103.959 105.976 103.96C105.976 103.96 137.113 104.191 138.478 104.332C140.712 104.562 143.659 110.128 144.395 115.197C145.132 120.266 158.116 140.883 158.116 140.883C158.116 140.883 160.824 141.75 162.075 141.677C163.422 141.598 164.045 141.147 164.045 141.147C164.045 141.147 156.521 96.1275 150.65 92.0056L150.651 92.0046Z" fill="#2B478B"/>
<path d="M127.283 26.6681C124.883 25.4081 121.231 25.2372 120.638 25.1582C113.539 24.2046 109.266 34.5199 109.014 37.6455C108.551 43.4064 105.503 44.2853 101.214 47.8935C92.6123 55.1281 95.1345 63.5352 99.8383 66.6586C102.661 68.5326 107.635 66.6586 107.635 66.6586C107.705 66.7077 121.239 59.093 127.91 55.4196C137.911 53.9983 133.398 29.8802 127.283 26.6681Z" fill="#233862"/>
<path d="M125.802 51.8702C125.833 51.8862 122.648 53.3353 120.347 52.575C118.184 51.8627 116.279 48.6058 116.309 48.6005C117.248 48.4649 118.202 47.538 118.469 42.0493L118.885 42.154L125.876 43.9212C125.876 43.9212 125.599 46.1359 125.485 48.2299C125.389 49.9876 125.408 51.6609 125.801 51.8702H125.802Z" fill="#FFB27D"/>
<path d="M125.876 43.9211C125.876 43.9211 125.876 44.377 125.615 46.4369C121.66 45.4395 119.918 44.1282 118.688 42.6279L125.875 43.9211H125.876Z" fill="#ED975D"/>
<path d="M127.368 44.1997C127.368 44.1997 118.124 45.7054 117.275 39.9337C116.426 34.1621 114.662 30.4695 120.527 29.265C126.394 28.0604 127.868 30.0936 128.619 31.9506C129.371 33.8086 129.751 43.6605 127.368 44.2008V44.1997Z" fill="#FFB27D"/>
<path d="M127.377 29.0226C127.377 29.0226 123.178 35.6496 119.431 37.2193C115.683 38.789 113.842 37.9924 113.842 37.9924C113.842 37.9924 115.547 35.4072 115.991 31.9356C116.123 30.9126 116.789 30.0349 117.747 29.6515C120.437 28.5741 125.638 26.8762 127.378 29.0226H127.377Z" fill="#233862"/>
<path d="M123.688 29.6632C123.688 29.6632 126.149 30.9243 127.162 32.1074C128.14 33.2479 129.27 36.3446 129.189 37.7349C129.189 37.7349 130.403 31.0716 127.874 28.7811C125.193 26.3529 123.688 29.6632 123.688 29.6632Z" fill="#233862"/>
<path d="M133.197 65.9697C132.916 84.7615 133.12 80.834 131.065 82.6173C130.569 83.0465 129.177 83.3028 127.344 83.4235C121.582 83.8058 111.454 82.8564 111.068 81.7918C109.739 78.1078 110.677 76.9631 109.569 71.3217C109.454 70.7216 109.311 70.0723 109.143 69.3654C108.218 65.4913 107.319 64.1725 110.598 57.9481C113.573 52.3099 117.071 47.73 117.349 47.8944C125.197 52.5534 125.466 48.6483 125.466 48.6483C125.466 48.6483 133.336 56.8034 133.198 65.9697H133.197Z" fill="white"/>
<path d="M125.465 48.6494C125.465 48.6494 133.497 50.0109 134.445 53.4878C135.394 56.9647 140.974 77.4041 140.974 77.4041C140.974 77.4041 136.869 78.142 134.973 76.2455C133.076 74.349 128.374 58.6508 128.374 58.6508L125.466 48.6505L125.465 48.6494Z" fill="white"/>
<path d="M127.345 83.4236C121.582 83.8058 111.454 82.8565 111.069 81.7919C109.739 78.1079 110.678 76.9632 109.569 71.3218L112.349 63.4956C112.349 63.4956 111.89 72.2102 114.459 74.5029C117.026 76.7944 124.981 78.928 126.231 80.8426C126.833 81.762 127.229 82.6836 127.346 83.4236H127.345Z" fill="#EBF3FF"/>
<path d="M120.743 79.7589C120.743 79.7589 126.428 78.4935 127.345 78.9975C128.262 79.5015 130.503 81.3393 130.784 81.9789C131.065 82.6185 128.742 81.4941 127.986 81.2912C127.497 81.1599 126.209 81.6073 125.572 81.8198C122.89 82.7147 121.245 82.2544 121.245 82.2544L120.743 79.76V79.7589Z" fill="#FFB27D"/>
<path d="M117.349 47.8955C117.349 47.8955 109.304 48.3654 106.661 52.0515C102.941 57.2391 95.5627 79.3486 99.7913 82.2969C104.554 85.6179 121.465 83.1661 121.465 83.1661C121.465 83.1661 122.028 80.5361 121.245 79.2632C120.462 77.9903 107.737 75.9347 107.15 75.3474C106.562 74.7601 114.491 63.8949 114.491 62.133C114.491 60.371 117.349 47.8955 117.349 47.8955Z" fill="white"/>
<path d="M127.62 80.5801C127.62 80.5801 128.811 82.1167 129.202 82.3004C129.592 82.484 129.844 82.4381 129.844 82.4381L129.041 80.9933L127.62 80.5801Z" fill="#FFB27D"/>
<path d="M127.345 78.9976L130.808 80.6794C130.808 80.6794 130.66 80.9207 130.234 80.9015C129.808 80.8823 128.732 80.4883 128.732 80.4883L127.345 78.9976Z" fill="#FFB27D"/>
<path d="M140.101 82.9836H124.018C124.018 82.2757 124.592 81.7012 125.3 81.7012H140.101V82.9836Z" fill="#ED7D2B"/>
<path d="M140.056 65.4678H164.922L158.958 82.9835H133.931L140.056 65.4678Z" fill="#ED7D2B"/>
<path d="M165.289 65.4668L159.324 82.9836H134.296L140.422 65.4668H165.289Z" fill="#F99746"/>
<path d="M151.882 74.064C151.727 74.7336 151.06 75.276 150.39 75.276C149.721 75.276 149.303 74.7336 149.458 74.064C149.613 73.3945 150.28 72.8521 150.95 72.8521C151.619 72.8521 152.036 73.3945 151.882 74.064Z" fill="white"/>
<path d="M118.46 82.9839H227.431C227.889 82.9839 228.261 83.3555 228.261 83.8136V86.0945C228.261 86.5526 227.889 86.9242 227.431 86.9242H118.46C118.001 86.9242 117.63 86.5526 117.63 86.0945V83.8136C117.63 83.3555 118.001 82.9839 118.46 82.9839Z" fill="#182D4F"/>
<path d="M230.098 151.84L230.145 151.835C230.704 151.765 231.099 151.268 231.028 150.722L221.318 84.9902L217.763 85.0917L229.189 151.179C229.262 151.602 229.664 151.894 230.099 151.84H230.098Z" fill="#182D4F"/>
<path d="M114.809 151.84L114.762 151.835C114.204 151.765 113.809 151.268 113.879 150.722L123.59 84.9902L127.145 85.0917L115.719 151.179C115.647 151.602 115.244 151.894 114.808 151.84H114.809Z" fill="#182D4F"/>
<path d="M137.291 151.84L137.244 151.835C136.685 151.765 136.29 151.268 136.361 150.722L146.072 84.9902L149.626 85.0917L138.201 151.179C138.127 151.602 137.725 151.894 137.29 151.84H137.291Z" fill="#182D4F"/>
<path d="M316.665 151.22H14.8643C14.6367 151.22 14.4521 151.404 14.4521 151.632V151.97C14.4521 152.198 14.6367 152.383 14.8643 152.383H316.665C316.892 152.383 317.077 152.198 317.077 151.97V151.632C317.077 151.404 316.892 151.22 316.665 151.22Z" fill="#2E3552"/>
<path d="M194.58 151.786H213.849C214.776 150.655 214.434 146.482 214.295 145.119C214.266 144.844 214.245 144.684 214.245 144.684C214.245 144.684 207.665 139.421 206.761 143.451C206.733 143.577 206.7 143.701 206.664 143.822C205.525 147.592 200.417 149.305 197.468 149.782C195.55 150.093 194.842 151.09 194.579 151.785L194.58 151.786Z" fill="#233862"/>
<path d="M247.159 89.1729C246.464 89.1729 214.152 95.2392 208.807 101.856C206.137 105.16 205.74 143.331 205.74 143.331C205.74 143.331 209.043 147.427 216.177 145.048C216.177 145.048 221.408 118.932 221.022 111.012C220.915 108.822 243.1 110.695 247.159 109.644C251.219 108.594 261.141 99.7604 258.955 95.4581C256.769 91.1548 247.159 89.1729 247.159 89.1729Z" fill="#233862"/>
<path d="M208.946 79.8262C208.946 79.8262 202.428 79.9137 200.887 80.5747C199.346 81.2357 196.219 82.752 197.056 82.9848C197.893 83.2176 201.886 82.8887 202.749 83.0211C203.611 83.1535 204.675 82.9848 205.204 82.9848C205.732 82.9848 208.197 82.9848 208.197 82.9848L208.946 79.8262Z" fill="#FFB27D"/>
<path d="M201.327 64.1845C201.327 64.1845 199.104 62.5966 196.946 62.288C195.715 62.1118 194.519 61.8929 193.796 61.6377C191.805 60.9361 187.821 57.3536 188.123 56.9339C189.089 55.5874 193.741 58.4374 194.552 58.1309C195.364 57.8245 192.992 56.1384 193.816 55.5446C194.248 55.235 195.256 56.7876 196.079 56.9435C197.194 57.1549 198.065 58.7289 198.402 58.8112C199.055 58.9713 201.917 61.0995 201.917 61.0995L201.328 64.1834L201.327 64.1845Z" fill="#FFB27D"/>
<path d="M243.941 45.6402C243.941 45.6402 238.98 47.1779 234.091 60.6391C229.203 74.1002 227.347 74.8274 225.57 75.3549C223.793 75.8835 208.196 78.9887 208.196 78.9887V82.9835H232.228C232.228 82.9835 241.239 74.4109 243.941 68.6404C246.643 62.8698 243.941 45.6392 243.941 45.6392V45.6402Z" fill="#ED7D2B"/>
<path d="M186.065 151.786H205.334C206.261 150.655 205.919 146.482 205.779 145.119C205.75 144.844 205.73 144.684 205.73 144.684C205.73 144.684 199.15 139.421 198.245 143.451C198.218 143.577 198.184 143.701 198.148 143.822C197.01 147.592 191.901 149.305 188.952 149.782C187.034 150.093 186.326 151.09 186.063 151.785L186.065 151.786Z" fill="#1B3051"/>
<path d="M237.639 89.1729C236.943 89.1729 204.631 95.2392 199.287 101.856C196.617 105.16 196.22 143.331 196.22 143.331C196.22 143.331 199.524 147.427 206.657 145.048C206.657 145.048 211.887 118.932 211.502 111.012C211.395 108.822 233.579 110.695 237.639 109.644C241.699 108.594 251.62 99.7604 249.434 95.4581C247.248 91.1548 237.639 89.1729 237.639 89.1729Z" fill="#2B478B"/>
<path d="M239.661 49.9064C241.985 49.7142 244.422 49.0948 246.529 48.4114C249.162 47.5571 251.284 46.3078 249.917 43.9019C248.657 41.684 246.617 36.7293 246.754 32.6245L241.855 36.5734L238.527 39.2547C238.527 39.2547 238.541 40.8362 238.905 43.6072C238.971 44.1123 239.049 44.658 239.141 45.2399C239.214 45.7108 238.999 46.1807 238.594 46.4316C238.568 46.4476 238.544 46.4626 238.519 46.4786C236.865 47.5176 237.716 50.0676 239.663 49.9064H239.661Z" fill="#FFB27D"/>
<path d="M238.527 38.6024C238.527 38.6024 238.357 39.1769 238.649 41.2965C241.617 40.8128 244.39 38.4454 244.39 38.4454C242.879 38.0311 242.33 36.3984 241.205 36.5511L238.527 38.6024Z" fill="#ED975D"/>
<path d="M235.781 39.0852C235.781 39.0852 247.194 40.9816 248.266 33.8549C249.337 26.7292 251.533 22.1749 244.291 20.6628C237.049 19.1508 235.22 21.657 234.285 23.9486C233.349 26.2402 232.84 38.4081 235.782 39.0852H235.781Z" fill="#FFB27D"/>
<path d="M232.606 20.795C232.116 22.511 233.428 24.6008 235.629 25.2895C238.898 26.3104 238.175 30.3201 239.647 30.2657C241.117 30.2112 241.711 27.9613 243.024 29.7584C244.144 31.2918 242.092 33.1093 242.233 33.9508C242.475 35.3945 244.737 38.3481 246.774 38.1997C248.812 38.0512 252.625 28.367 251.863 25.3707C251.1 22.3743 248.049 19.2146 245.162 18.7789C242.275 18.3433 238.265 19.5894 237.339 19.5894C236.413 19.5894 232.87 19.8671 232.605 20.7939L232.606 20.795Z" fill="#2B478B"/>
<path d="M259.108 55.5307C257.458 48.8909 252.898 41.9244 249.816 41.9297C244.562 41.9393 237.01 43.3264 233.961 50.8483C231.716 56.3882 228.72 88.2556 232.105 90.5216C239.844 95.7027 257.783 106.279 260.969 95.4934C263.889 85.6106 261.971 67.0548 259.107 55.5307H259.108Z" fill="#F99746"/>
<path d="M246.348 48.9228C244.85 45.0241 240.016 43.6765 236.719 46.2414C234.936 47.6286 232.753 49.6041 230.116 52.4125C220.312 62.8527 218.319 62.7876 216.478 62.5719C214.637 62.3562 199.081 59.0544 199.081 59.0544C199.081 59.0544 198.285 59.6417 197.816 60.5921C197.19 61.8607 197.505 62.7256 197.505 62.7256C196.895 62.3316 203.019 66.5528 206.067 68.2357C210.093 70.4578 216.158 72.5422 218.573 73.3335C219.258 73.5578 219.997 73.5471 220.675 73.3025C224.261 72.0105 236.302 67.3002 246.104 59.1292C248.688 56.9764 247.738 52.5385 246.349 48.9238L246.348 48.9228Z" fill="#F99746"/>
<path d="M250.344 41.9937L249.155 39.3145C249.155 39.3145 238.508 40.1826 236.719 46.2415C236.719 46.2415 244.971 42.1229 250.343 41.9937H250.344Z" fill="white"/>
<path d="M276.192 151.546H276.266C276.867 151.533 277.331 151.042 277.275 150.477L273.264 110.426L269.765 110.738L275.524 151.005C275.568 151.32 275.857 151.552 276.192 151.546Z" fill="#8CB4F4"/>
<path d="M255.549 151.546H255.623C256.224 151.533 256.689 151.042 256.632 150.477L252.622 110.426L249.123 110.738L254.882 151.005C254.927 151.32 255.215 151.552 255.55 151.546H255.549Z" fill="#8CB4F4"/>
<path d="M216.797 151.546H216.724C216.123 151.533 215.658 151.042 215.715 150.477L219.725 110.426L223.225 110.738L217.466 151.005C217.421 151.32 217.133 151.552 216.797 151.546Z" fill="#73A2E5"/>
<path d="M275.058 104.753L278.864 71.3015C279.362 66.4813 277.75 61.7604 270.793 61.3952L258.554 60.6498C251.301 60.3509 248.027 66.3873 247.108 71.0346L239.843 107.805L275.057 104.751L275.058 104.753Z" fill="#8CB4F4"/>
<path d="M218.696 104.601H274.997V109.028C274.997 110.124 274.107 111.012 273.013 111.012H218.696C217.6 111.012 216.712 110.123 216.712 109.028V106.585C216.712 105.49 217.601 104.601 218.696 104.601Z" fill="#73A2E5"/>
<path d="M241.385 104.601H274.997V109.471C274.997 110.321 274.306 111.012 273.456 111.012H241.385C240.535 111.012 239.844 110.321 239.844 109.471V106.142C239.844 105.292 240.535 104.601 241.385 104.601Z" fill="#8CB4F4"/>
</svg>
