<svg width="276" height="150" viewBox="0 0 276 150" fill="none" xmlns="http://www.w3.org/2000/svg">
<g clip-path="url(#clip0_1095_1301)">
<path d="M268.669 147.885H13.5005C7.29813 139.791 0.388242 126.076 3.4045 107.202C8.53536 75.1069 59.1607 86.8606 87.6372 53.4109C116.114 19.9612 162.223 -16.2015 212.395 7.75469C262.572 31.7149 215.335 87.7663 254.546 106.749C279.044 118.608 275.086 136.289 268.665 147.885H268.669Z" fill="#EBE9F4"/>
<path d="M27.5752 67.1339C27.5752 67.1339 46.0447 83.0076 71.6303 53.4273C94.0298 27.5264 92.182 11.6567 87.7506 10.6337C83.3233 9.61077 79.6076 25.1853 64.3039 40.9863C49.0003 56.7873 20.3378 56.387 27.5752 67.1339Z" fill="#EBE9F4"/>
<path d="M179.689 82.9951L190.683 147.885H193.61L182.617 82.9951H179.689Z" fill="#716DAA"/>
<path d="M219.345 82.9951L230.335 147.885H233.262L222.273 82.9951H219.345Z" fill="#716DAA"/>
<path d="M171.951 37.707H214.502L225.491 102.597H182.944L171.951 37.707Z" fill="#716DAA"/>
<path d="M205.655 82.9952H205.679L194.69 147.885H191.762L199.433 102.601H162.708L155.034 147.885H152.106L163.1 82.9952H163.104L170.774 37.7109H213.325L205.655 82.9952Z" fill="#9893BC"/>
<path d="M170.16 65.3589H175.367L170.01 96.9851H164.802L170.16 65.3589Z" fill="#ADAAD6"/>
<path d="M177.518 76.999H182.726L179.341 96.9847H174.134L177.518 76.999Z" fill="#ADAAD6"/>
<path d="M190.27 61.5054H195.478L189.47 96.9848H184.262L190.27 61.5054Z" fill="#ADAAD6"/>
<path d="M206.969 51.4785L199.258 96.9851H194.051L201.761 51.4785H206.969Z" fill="#ADAAD6"/>
<path d="M215.715 34.998H169.909V37.707H215.715V34.998Z" fill="#716DAA"/>
<path d="M220.413 91.4742L212.872 142.282H205.631L207.042 89.7559L220.413 91.4742Z" fill="#22355D"/>
<path d="M213.701 146.758C213.483 147.409 212.864 147.894 212.116 147.894H197.019C197.269 147.498 197.54 147.117 197.831 146.758C200.091 143.948 203.52 142.282 207.175 142.282H212.791L213.737 145.779C213.83 146.115 213.81 146.454 213.705 146.754L213.701 146.758Z" fill="#151328"/>
<path d="M212.116 147.893H197.019C197.269 147.497 197.54 147.117 197.831 146.757H213.705C213.487 147.408 212.868 147.893 212.12 147.893H212.116Z" fill="#262444"/>
<path d="M228.94 142.281L227.533 89.7557L214.393 91.4417L213.022 88.7529L206.698 90.7907C206.698 90.7907 207.851 93.5078 210.034 94.3043C211.308 94.7693 213.301 95.1251 214.736 95.3394L221.703 142.281H228.944H228.94Z" fill="#2E4A79"/>
<path d="M220.817 146.757C221.036 147.408 221.654 147.893 222.406 147.893H237.504C237.253 147.497 236.982 147.117 236.691 146.757C234.431 143.947 231.002 142.281 227.347 142.281H221.731L220.785 145.779C220.692 146.114 220.712 146.454 220.817 146.753V146.757Z" fill="#151328"/>
<path d="M220.817 146.757C221.036 147.408 221.654 147.893 222.406 147.893H237.504C237.253 147.497 236.982 147.117 236.691 146.757H220.817Z" fill="#262444"/>
<path d="M195.911 61.057C195.911 61.057 196.602 60.1796 196.351 57.5232C196.101 54.8668 194.973 54.6647 194.823 54.7415C194.673 54.8183 194.823 57.5232 194.823 57.5232C194.823 57.5232 191.136 53.3627 189.935 52.8088C188.73 52.2589 189.583 54.1269 190.95 55.8938C190.95 55.8938 188.443 53.7994 187.351 53.5487C186.259 53.298 187.751 55.3439 189.696 56.8844C189.696 56.8844 187.642 55.4814 186.474 55.1175C185.309 54.7536 186.288 56.3022 188.637 58.2591C188.637 58.2591 187.153 57.3008 186.51 57.2079C185.871 57.1149 184.97 57.0582 187.129 58.8049C189.292 60.5556 191.233 62.1163 191.835 62.5651C192.438 63.018 195.539 62.0961 195.911 61.0611V61.057Z" fill="#F4AC96"/>
<path d="M196.954 63.6849L193.371 65.1647L192.494 63.3453L191.92 62.1525L195.644 60.1592L196.384 62.1525L196.954 63.6849Z" fill="#F4AC96"/>
<path d="M193.161 60.5677C193.161 60.5677 193.028 59.1445 194.148 58.0649" stroke="#BE494F" stroke-miterlimit="10" stroke-linecap="round"/>
<path d="M193.283 57.4668C193.283 57.4668 192.146 59.1609 190.145 59.3914" stroke="#BE494F" stroke-miterlimit="10" stroke-linecap="round"/>
<path d="M196.954 63.6852L193.371 65.161L192.498 63.3456C193.711 62.9655 195.68 62.351 196.388 62.1528L196.958 63.6852H196.954Z" fill="#DF776C"/>
<path d="M216.458 62.5692L205.574 81.2489C205.364 81.6128 205.052 82.001 204.68 82.373C203.071 84.0105 200.378 84.0307 198.882 82.2881C198.64 82.005 198.442 81.6937 198.32 81.346L193.582 68.2014L192.126 64.1622L197.18 62.0881L197.932 63.6932L202.161 72.7177L207.32 63.8833C208.897 61.15 212.387 60.2201 215.116 61.7929L216.462 62.5692H216.458Z" fill="#578EBC"/>
<path d="M211.974 51.0864C211.707 51.9071 210.567 52.2751 209.423 51.9071C208.279 51.5392 207.567 50.5729 207.83 49.7521C208.097 48.9313 209.237 48.5634 210.381 48.9313C211.525 49.2993 212.237 50.2656 211.974 51.0864Z" fill="#DF776C"/>
<path d="M208.974 45.5144C208.974 45.5144 208.825 48.7045 209.698 50.6251C210.567 52.5456 210.126 44.9443 210.244 44.5764C210.365 44.2085 208.974 45.5185 208.974 45.5185V45.5144Z" fill="#2C2460"/>
<path d="M212.08 65.2498C214.595 67.1218 222.806 62.9492 222.806 62.9492C222.806 62.9492 221.703 62.2173 220.922 59.6378C220.639 58.7038 220.562 57.6566 220.578 56.7064C220.607 55.0406 220.922 53.6578 220.922 53.6578C220.922 53.6578 213.915 53.2899 213.794 55.9584C213.741 57.0622 213.568 57.9598 213.377 58.631C213.107 59.5892 212.815 60.0946 212.815 60.0946L210.511 62.0718C210.511 62.0718 209.565 63.3737 212.08 65.2457V65.2498Z" fill="#F4AC96"/>
<path d="M213.381 58.635C217.085 59.189 219.515 57.6283 220.582 56.7064C220.611 55.0406 220.926 53.6578 220.926 53.6578C220.926 53.6578 213.919 53.2899 213.798 55.9584C213.745 57.0622 213.571 57.9598 213.381 58.631V58.635Z" fill="#DF776C"/>
<path d="M209.67 49.5701C209.67 49.6712 209.67 49.7682 209.67 49.8693C209.67 49.9866 209.67 50.0998 209.674 50.213C209.811 54.2158 211.142 57.6283 214.611 57.4544C220.19 57.1795 222.382 53.7791 222.244 49.7804C222.196 48.3814 221.654 47.0835 220.821 45.9959C220.611 45.7129 220.372 45.446 220.118 45.1913C218.573 43.6468 216.43 42.6926 214.489 42.7613C213.499 42.7936 212.67 43.0928 211.999 43.5902C210.446 44.7344 209.702 46.9501 209.67 49.5135C209.67 49.5337 209.67 49.5539 209.67 49.5701Z" fill="#F4AC96"/>
<path d="M209.674 49.5135C209.739 48.5634 210.256 47.7224 210.256 47.7224C214.845 48.624 218.5 46.9542 218.5 46.9542C218.528 47.1887 219.224 48.0175 219.911 48.5593C220.595 49.1011 221.056 50.1119 221.056 50.1119C221.056 50.1119 221.569 48.8262 221.569 48.624C221.569 48.4785 221.104 46.9137 220.829 46C220.619 45.7169 220.38 45.4501 220.126 45.1954C218.702 44.8032 214.586 43.7074 212.007 43.5942C210.454 44.7385 209.71 46.9542 209.678 49.5176L209.674 49.5135Z" fill="#DF776C"/>
<path d="M207.434 44.6411C207.717 45.4336 208.275 46.1412 209.1 46.5374C211.307 47.5967 217.396 47.1115 218.702 46.129C218.702 46.129 218.908 46.7396 220.012 47.8878C221.116 49.0321 221.278 51.2356 221.116 51.7289C220.954 52.2181 223.364 51.7289 223.364 51.7289C223.364 51.7289 226.3 43.5131 220.926 41.7179C220.926 41.7179 221.031 39.1423 216.903 38.7744C212.775 38.4064 211.008 40.6343 209.508 40.7354C207.47 40.8728 206.815 42.947 207.434 44.6411Z" fill="#2C2460"/>
<path d="M207.434 44.6413C207.211 43.3595 208.093 41.5805 210.11 41.5199C212.132 41.4592 214.4 39.3729 217.154 39.7085C219.907 40.0441 220.926 41.714 220.926 41.714C220.926 41.714 221.031 39.1384 216.903 38.7705C212.775 38.4025 211.008 40.6304 209.508 40.7314C207.47 40.8689 206.815 42.9431 207.434 44.6372V44.6413Z" fill="#403A87"/>
<path d="M220.4 52.9985C220.667 53.8193 221.807 54.1872 222.952 53.8193C224.096 53.4513 224.807 52.485 224.545 51.6642C224.278 50.8434 223.138 50.4755 221.993 50.8434C220.849 51.2114 220.137 52.1777 220.4 52.9985Z" fill="#F4AC96"/>
<path d="M197.932 63.697L193.125 68.6742L192.126 64.166L197.18 62.0918L197.932 63.697Z" fill="#84BFEF"/>
<path d="M228.168 89.2782C228.168 90.289 227.48 91.1785 226.502 91.4373C217.975 93.7176 210.414 92.1246 207.515 91.32C206.775 91.1178 206.278 90.4305 206.31 89.6663L206.359 88.4129L206.642 81.1674L207.216 66.4864C207.305 64.0524 209.003 61.6669 211.356 61.0362L212.157 60.6723L214.073 63.2599L214.724 64.1373L215.828 63.3368L220.93 59.6372L225.37 61.6548C226.583 62.2047 227.371 63.3974 227.416 64.7276L227.784 76.7441L227.824 78.0663L228.168 89.2741V89.2782Z" fill="#6EA0D3"/>
<path d="M228.168 89.2784C228.168 90.2892 227.48 91.1787 226.502 91.4375C217.975 93.7178 210.414 92.1248 207.515 91.3202C206.775 91.118 206.278 90.4307 206.31 89.6665L206.359 88.4131L206.642 81.1676C208.263 83.0437 210.976 84.4144 215.521 83.3429C225.891 80.8968 225.176 73.0488 225.176 73.0488C225.176 73.0488 226.328 74.6783 227.792 76.7524L227.832 78.0746L228.176 89.2824L228.168 89.2784Z" fill="#5E9DD1"/>
<path d="M215.517 83.3388L214.142 85.0653C213.778 85.5262 213.058 85.4615 212.779 84.944L211.886 83.2863C211.518 82.603 211.376 81.8186 211.478 81.0504L213.511 65.7063L214.389 65.6416L215.452 65.8033L216.309 80.828C216.362 81.7337 216.079 82.6272 215.513 83.3388H215.517Z" fill="#356E9E"/>
<path d="M216.948 64.0893L215.456 65.8076L213.515 65.7106L213.107 64.3561L213.022 63.786L214.073 63.2563L214.724 64.1378L215.828 63.3372L216.948 64.0893Z" fill="#356E9E"/>
<path d="M214.724 64.1335C214.724 64.1335 216.438 64.271 217.724 66.1106L222.257 60.2358C222.257 60.2358 221.832 59.3665 220.894 59.504L214.728 64.1335H214.724Z" fill="#84BFEF"/>
<path d="M214.724 64.1336C214.724 64.1336 213.05 64.0892 212.468 65.8035L211.324 60.891C211.324 60.891 211.837 60.0378 212.537 60.3613L214.724 64.1336Z" fill="#84BFEF"/>
<path d="M219.127 86.9615L218.165 87.8834C218.165 87.8834 215.128 86.355 214.008 86.4278C214.008 86.4278 211.902 86.8807 211.409 87.8551C210.915 88.8295 211.049 89.9535 211.987 90.0303C211.987 90.0303 212.104 90.9765 213.151 90.8754C213.151 90.8754 213.24 92.1045 214.477 91.5951C214.477 91.5951 214.51 92.3512 215.411 92.3471C216.317 92.3471 216.814 91.587 216.814 91.587C216.814 91.587 217.995 92.2218 219.426 91.0128L221.177 89.8403L219.127 86.9615Z" fill="#F4AC96"/>
<path d="M212.035 89.8404C212.035 89.8404 212.621 88.3969 214.271 87.6772" stroke="#BE494F" stroke-miterlimit="10" stroke-linecap="round"/>
<path d="M213.155 90.7216C213.155 90.7216 213.895 89.3267 215.298 88.793" stroke="#BE494F" stroke-miterlimit="10" stroke-linecap="round"/>
<path d="M214.586 91.409C214.586 91.409 215.185 90.4022 216.341 89.9453" stroke="#BE494F" stroke-miterlimit="10" stroke-linecap="round"/>
<path d="M216.499 90.7944C216.499 90.7944 216.463 91.1341 216.758 91.4777" stroke="#BE494F" stroke-miterlimit="10" stroke-linecap="round"/>
<path d="M216.034 91.3324C216.034 91.3324 216.309 91.4213 216.6 91.2354" stroke="#BE494F" stroke-miterlimit="10" stroke-linecap="round"/>
<path d="M232.013 83.5856L224.08 88.7569L221.359 90.5318L218.545 86.5088L219.58 85.5991L225.976 79.9669L222.794 68.3304C222.354 66.3007 223.009 62.2696 225.034 61.8289C225.034 61.8289 227.634 61.4408 229.967 66.5999L231.96 74.6945L233.287 80.0841C233.614 81.4022 233.105 82.789 232.009 83.5856H232.013Z" fill="#578EBC"/>
<path d="M224.557 89.0927L221.355 90.5321L218.545 86.509L220.126 85.1182L224.557 89.0927Z" fill="#84BFEF"/>
<path d="M253.923 124.265C253.923 124.265 249.314 112.628 251.728 97.9148C254.141 83.2015 262.927 77.7148 262.927 77.7148C262.927 77.7148 266 91.5468 262.05 102.087C258.096 112.628 257.55 124.265 257.55 124.265H253.927H253.923Z" fill="#3B9382"/>
<path d="M254.586 123.315C254.586 123.315 252.456 100.001 259.794 85.377C259.794 85.377 254.316 102.197 256.297 123.315H254.586Z" fill="#317C6D"/>
<path d="M256.305 125.344C256.305 125.344 255.808 108.811 262.046 102.091C268.285 95.3716 275.211 94.5791 275.211 94.5791C275.211 94.5791 274.188 104.117 270.044 109.11C265.899 114.104 260.449 119.445 260.11 124.269L256.305 125.344Z" fill="#4FB29F"/>
<path d="M254.574 125.344C254.574 125.344 255.071 108.811 248.833 102.091C242.594 95.3716 235.668 94.5791 235.668 94.5791C235.668 94.5791 236.691 104.117 240.835 109.11C244.98 114.104 250.43 119.445 250.769 124.269L254.574 125.344Z" fill="#4FB29F"/>
<path d="M256.717 126.096C257.057 125.417 256.463 112.05 266.85 102.597C266.85 102.597 259.273 111.815 258.25 125.34L256.717 126.092V126.096Z" fill="#67CEBB"/>
<path d="M254.081 126.096C253.741 125.417 254.336 112.05 243.949 102.597C243.949 102.597 251.526 111.815 252.549 125.34L254.081 126.092V126.096Z" fill="#67CEBB"/>
<path d="M269.348 122.857L268.636 126.775L267.743 131.712L265.64 143.324C265.091 146.361 262.446 148.572 259.357 148.572H251.857C248.772 148.572 246.124 146.365 245.574 143.324L243.471 131.712L242.578 126.775L241.866 122.857H269.34H269.348Z" fill="#ADAAD6"/>
<path d="M268.637 126.779L267.743 131.716H243.476L242.582 126.779H268.637Z" fill="#716DAA"/>
<path d="M21.2875 124.265C21.2875 124.265 25.8968 112.628 23.483 97.9148C21.0691 83.2015 12.2832 77.7148 12.2832 77.7148C12.2832 77.7148 9.21033 91.5468 13.1606 102.087C17.1149 112.628 17.6607 124.265 17.6607 124.265H21.2834H21.2875Z" fill="#3B9382"/>
<path d="M20.6247 123.315C20.6247 123.315 22.7555 100.001 15.417 85.377C15.417 85.377 20.8956 102.197 18.9144 123.315H20.6247Z" fill="#317C6D"/>
<path d="M18.9021 125.344C18.9021 125.344 19.3994 108.811 13.1607 102.092C6.92606 95.3717 0 94.5752 0 94.5752C0 94.5752 1.02294 104.113 5.16726 109.107C9.31157 114.1 14.7619 119.441 15.1015 124.265L18.9062 125.34L18.9021 125.344Z" fill="#4FB29F"/>
<path d="M20.6325 125.344C20.6325 125.344 20.1351 108.811 26.3738 102.091C32.6126 95.3716 39.5386 94.5791 39.5386 94.5791C39.5386 94.5791 38.5157 104.117 34.3714 109.11C30.2271 114.104 24.7768 119.445 24.4371 124.269L20.6325 125.344Z" fill="#4FB29F"/>
<path d="M18.4937 126.096C18.154 125.417 18.7484 112.05 8.36133 102.597C8.36133 102.597 15.9384 111.815 16.9613 125.34L18.4937 126.092V126.096Z" fill="#67CEBB"/>
<path d="M21.126 126.096C21.4656 125.417 20.8713 112.05 31.2583 102.597C31.2583 102.597 23.6813 111.815 22.6584 125.34L21.126 126.092V126.096Z" fill="#67CEBB"/>
<path d="M5.86279 122.857L6.5744 126.775L7.46796 131.712L9.57044 143.324C10.1203 146.361 12.7646 148.572 15.8536 148.572H23.3538C26.4388 148.572 29.0871 146.365 29.637 143.324L31.7395 131.712L32.6331 126.775L33.3447 122.857H5.86279Z" fill="#ADAAD6"/>
<path d="M6.57422 126.779L7.46777 131.716H31.7353L32.6248 126.779H6.57422Z" fill="#716DAA"/>
<path d="M137.203 108.443H135.08V147.885H137.203V108.443Z" fill="#96A3DA"/>
<path d="M106.826 124.439L103.325 147.886H100.968L104.542 124.439H106.826Z" fill="#149FBE"/>
<path d="M105.064 123.048H102.747L101.72 116.183L101.34 113.647H103.628L104.016 116.183L105.064 123.048Z" fill="#149FBE"/>
<path d="M115.73 123.048H113.413L112.39 116.183L112.01 113.647H114.298L114.682 116.183L115.73 123.048Z" fill="#149FBE"/>
<path d="M113.688 124.439L110.186 147.886H107.829L111.403 124.439H113.688Z" fill="#008B9A"/>
<path d="M128.555 124.439L132.06 147.886H134.417L130.843 124.439H128.555Z" fill="#008B9A"/>
<path d="M118.766 124.439L122.268 147.886H124.625L121.051 124.439H118.766Z" fill="#149FBE"/>
<path d="M103.628 113.647L104.016 116.183H101.72L101.34 113.647H103.628Z" fill="#008B9A"/>
<path d="M114.682 116.183H112.39L112.01 113.647H114.298L114.682 116.183Z" fill="#FDC25E"/>
<path d="M112.248 98.9785H96.229L98.8207 113.987H114.84L112.248 98.9785Z" fill="#008B9A"/>
<path d="M114.027 98.9785H98.0078L100.6 113.987H116.619L114.027 98.9785Z" fill="#149FBE"/>
<path d="M132.275 125.369H101.109C100.163 125.369 99.395 124.6 99.395 123.654C99.395 122.708 100.163 121.94 101.109 121.94H132.275C133.221 121.94 133.989 122.708 133.989 123.654C133.989 124.6 133.221 125.369 132.275 125.369Z" fill="#149FBE"/>
<path d="M155.07 147.885H142.499C142.475 147.635 142.463 147.4 142.459 147.174C142.406 144.869 143.207 144.016 143.207 144.016L147.986 143.417C152.082 143.81 153.974 146.017 154.694 147.174C154.961 147.602 155.07 147.885 155.07 147.885Z" fill="#ADADAD"/>
<path d="M155.07 147.885H142.499C142.475 147.635 142.463 147.4 142.459 147.174H154.694C154.961 147.602 155.07 147.885 155.07 147.885Z" fill="#CACAC8"/>
<path d="M148.588 144.756C148.528 144.756 148.463 144.736 148.415 144.695C148.293 144.598 148.273 144.424 148.37 144.303C148.394 144.271 148.981 143.551 150.149 143.284C150.299 143.248 150.452 143.345 150.485 143.494C150.521 143.644 150.424 143.798 150.274 143.83C149.304 144.052 148.811 144.647 148.807 144.655C148.75 144.723 148.669 144.76 148.588 144.76V144.756Z" fill="#CACAC8"/>
<path d="M149.619 145.346C149.555 145.346 149.49 145.322 149.437 145.277C149.32 145.176 149.304 144.998 149.405 144.881C149.429 144.853 150.04 144.149 151.221 143.923C151.374 143.895 151.52 143.992 151.552 144.145C151.58 144.299 151.483 144.444 151.33 144.477C150.351 144.667 149.842 145.245 149.838 145.249C149.781 145.314 149.704 145.346 149.623 145.346H149.619Z" fill="#CACAC8"/>
<path d="M150.578 145.884C150.509 145.884 150.444 145.86 150.392 145.811C150.279 145.706 150.266 145.532 150.372 145.415C150.396 145.387 151.022 144.699 152.207 144.497C152.365 144.473 152.506 144.574 152.531 144.728C152.559 144.881 152.454 145.027 152.3 145.051C151.318 145.217 150.796 145.783 150.788 145.791C150.731 145.852 150.655 145.884 150.578 145.884Z" fill="#CACAC8"/>
<path d="M126.242 107.19C126.242 107.19 138.299 109.123 145.2 112.689C145.2 112.689 148.083 123.763 149.106 143.332L142.621 144.812L137.676 122.514L125.101 118.531L121.2 116.481L126.242 107.19Z" fill="#22355D"/>
<path d="M134.252 150L122.732 144.97C122.813 144.731 122.894 144.509 122.979 144.303C123.852 142.172 124.928 141.711 124.928 141.711L129.549 143.074C133.144 145.071 133.997 147.853 134.195 149.199C134.268 149.696 134.252 150 134.252 150Z" fill="#ADADAD"/>
<path d="M134.252 150L122.732 144.97C122.813 144.731 122.894 144.509 122.979 144.303L134.191 149.199C134.264 149.696 134.248 150 134.248 150H134.252Z" fill="#CACAC8"/>
<path d="M129.565 144.541C129.509 144.517 129.46 144.472 129.428 144.416C129.355 144.278 129.408 144.108 129.545 144.036C129.581 144.015 130.402 143.591 131.583 143.813C131.736 143.842 131.838 143.987 131.805 144.141C131.777 144.294 131.631 144.396 131.478 144.367C130.499 144.181 129.812 144.529 129.804 144.533C129.727 144.573 129.638 144.573 129.561 144.541H129.565Z" fill="#CACAC8"/>
<path d="M130.273 145.491C130.212 145.467 130.164 145.418 130.131 145.354C130.063 145.212 130.123 145.046 130.261 144.978C130.297 144.961 131.134 144.561 132.307 144.824C132.46 144.856 132.553 145.01 132.521 145.16C132.489 145.313 132.335 145.406 132.185 145.374C131.215 145.156 130.516 145.483 130.508 145.487C130.431 145.523 130.346 145.523 130.273 145.487V145.491Z" fill="#CACAC8"/>
<path d="M130.936 146.369C130.876 146.34 130.823 146.292 130.795 146.227C130.73 146.086 130.795 145.92 130.932 145.855C130.969 145.839 131.814 145.459 132.982 145.746C133.136 145.787 133.225 145.936 133.188 146.086C133.152 146.235 132.998 146.328 132.849 146.292C131.882 146.053 131.175 146.361 131.167 146.365C131.09 146.397 131.009 146.397 130.936 146.365V146.369Z" fill="#CACAC8"/>
<path d="M126.315 106.774L125.437 111.933C125.437 111.933 137.312 113.526 139.589 116.485C141.865 119.445 131.498 144.02 131.498 144.02L123.658 141.594L129.424 122.405C129.424 122.405 124.321 122.194 120.606 122.348C116.89 122.502 109.907 122.481 108.439 118.386C106.972 114.29 109.705 106.325 109.705 106.325L126.315 106.782V106.774Z" fill="#2E4A79"/>
<path d="M135.8 104.36L135.113 106.839H132.04L130.382 99.48L129.958 97.5959L134.773 95.833L135.076 96.7832L135.695 98.7158C136.281 100.547 136.318 102.508 135.8 104.36Z" fill="#DF776C"/>
<path d="M135.076 96.7832L130.382 99.48L129.958 97.5959L134.773 95.833L135.076 96.7832Z" fill="#DF776C"/>
<path d="M129.719 83.9821C129.719 83.9821 132.61 85.47 133.786 89.5051C134.963 93.5403 135.909 95.946 135.909 95.946L128.935 98.0121C128.935 98.0121 129.577 85.3083 129.577 84.9646C129.577 84.6209 129.719 83.978 129.719 83.978V83.9821Z" fill="#ADADAD"/>
<path d="M130.778 93.0588L127.002 108.063H108.439C108.439 108.063 112.042 88.9023 113.938 86.82C115.054 85.5909 116.946 84.5801 118.988 83.9049C120.416 83.4359 121.924 83.1326 123.286 83.0396C123.941 82.9951 124.588 83.0073 125.203 83.0518C127.71 83.2337 129.715 84.0019 129.715 84.0019C132.962 85.316 130.774 93.0588 130.774 93.0588H130.778Z" fill="#CACAC8"/>
<path d="M128.68 87.471C128.627 88.9872 127.382 90.2366 124.22 89.0074C121.002 87.754 119.603 85.8011 118.992 83.8887C120.419 83.4278 121.928 83.1326 123.29 83.0396C123.945 82.9951 124.592 83.0073 125.207 83.0518C126.391 83.3752 127.402 83.8806 127.855 84.5518C127.855 84.5518 128.728 85.9548 128.68 87.471Z" fill="#DEDEDE"/>
<path d="M129.727 76.0126C129.994 76.8334 131.134 77.2014 132.278 76.8334C133.422 76.4655 134.134 75.4991 133.871 74.6784C133.604 73.8576 132.464 73.4897 131.32 73.8576C130.176 74.2255 129.464 75.1919 129.727 76.0126Z" fill="#DF776C"/>
<path d="M132.036 69.9478C132.036 69.9478 132.856 73.4856 132.019 75.3455C131.182 77.2013 130.313 72.0422 130.341 72.0341C130.37 72.026 130.56 70.0731 130.645 70.154C130.73 70.2348 132.04 69.9518 132.04 69.9518L132.036 69.9478Z" fill="#282D33"/>
<path d="M127.992 81.6852C127.814 82.7729 127.802 83.6866 127.847 84.3861C127.911 85.3808 127.794 87.2649 127.794 87.2649C127.794 87.2649 127.527 88.6558 125.934 88.5709C123.549 88.4496 121.03 85.7447 119.966 84.467C119.978 84.4427 119.999 84.4144 120.011 84.3861C120.48 83.533 121.018 81.944 121.2 81.01C121.519 79.3725 121.495 77.9614 121.495 77.9614C121.495 77.9614 128.421 79.0531 127.992 81.6893V81.6852Z" fill="#EA8F7A"/>
<path d="M127.847 84.3824C124.107 84.16 122.057 82.1262 121.2 81.0063C121.519 79.3687 121.495 77.9536 121.495 77.9536C121.495 77.9536 128.425 79.0453 127.992 81.6815C127.814 82.7732 127.802 83.6869 127.847 84.3824Z" fill="#DF776C"/>
<path d="M132.036 74.4966C132.036 74.5977 132.036 74.6947 132.032 74.7958C132.032 74.9131 132.032 75.0263 132.028 75.1435C131.894 79.1423 130.564 82.5588 127.095 82.385C121.515 82.11 119.324 78.7097 119.461 74.7109C119.51 73.312 120.051 72.01 120.884 70.9224C121.099 70.6394 121.333 70.3725 121.592 70.1178C123.132 68.5692 125.279 67.6191 127.216 67.6838C128.207 67.7161 129.031 68.0153 129.707 68.5167C130.277 68.9372 130.734 69.4951 131.089 70.1663C131.591 71.1043 131.89 72.2567 131.991 73.5263C132.015 73.8255 132.032 74.1327 132.032 74.44C132.032 74.4562 132.036 74.4805 132.036 74.4966Z" fill="#EA8F7A"/>
<path d="M131.987 73.526C131.833 72.9317 131.364 72.1837 131.364 72.1837C127.556 73.3603 122.704 73.0206 122.704 73.0206C122.291 74.3872 121.131 75.5274 121.131 75.5274L120.152 74.6177L121.895 71.1244C121.895 71.1244 127.814 69.6445 128.417 69.6445C128.902 69.6445 130.066 69.6688 131.081 70.1661C131.583 71.1041 131.882 72.2565 131.983 73.526H131.987Z" fill="#DF776C"/>
<path d="M132.161 70.5987C132.052 70.7159 131.934 70.8291 131.801 70.9343C129.662 72.6931 121.794 72.2968 121.794 72.2968C121.754 76.1581 120.059 76.4331 120.059 76.4331C120.059 76.4331 119.546 76.7161 118.353 76.4331C117.156 76.146 115.907 71.3103 116.251 70.0892C116.59 68.8641 118.47 68.9248 118.07 67.6795C117.67 66.4382 119.093 65.5082 120.743 65.6215C121.555 65.6781 121.996 65.5689 122.396 65.3142C122.396 65.3142 122.401 65.3142 122.405 65.3142C122.457 65.2859 122.51 65.2495 122.562 65.209C122.57 65.205 122.574 65.1969 122.586 65.1929C122.623 65.1646 122.663 65.1322 122.7 65.1039C123.011 64.8532 123.351 64.5257 123.872 64.1214C125.235 63.0783 126.945 64.5419 128.684 64.3721C130.418 64.2023 130.871 63.6888 132.04 64.9422C133.135 66.1188 133.855 68.8156 132.165 70.5987H132.161Z" fill="#282D33"/>
<path d="M121.301 77.9252C121.034 78.746 119.894 79.1139 118.75 78.746C117.605 78.3781 116.894 77.4117 117.157 76.591C117.423 75.7702 118.564 75.4023 119.708 75.7702C120.852 76.1381 121.564 77.1045 121.301 77.9252Z" fill="#EA8F7A"/>
<path d="M132.161 70.5988C133.358 67.4936 131.445 64.7442 130.006 65.0838C128.563 65.4235 126.897 65.2092 125.74 64.635C124.665 64.1054 123.363 64.6108 122.696 65.1C123.007 64.8493 123.347 64.5218 123.868 64.1175C125.231 63.0744 126.941 64.538 128.68 64.3682C130.414 64.1984 130.867 63.6849 132.036 64.9383C133.131 66.1149 133.851 68.8117 132.161 70.5948V70.5988Z" fill="#505960"/>
<path d="M136.055 100.793L123.335 103.159V106.838H132.788L136.055 100.793Z" fill="#DF776C"/>
<path d="M117.982 105.221C117.982 105.221 117.161 106.462 116.688 106.85C116.215 107.238 115.984 106.531 116.077 106.135C116.077 106.135 115.794 106.672 115.382 106.713C114.969 106.753 114.953 105.888 115.054 105.532C115.054 105.532 114.557 106.228 114.169 106.236C113.777 106.244 114.189 104.55 114.84 103.688C115.491 102.831 116.194 102.641 116.194 102.641C116.194 102.641 115.301 102.605 114.731 103.232C114.161 103.854 113.967 104.315 113.506 104.339C113.045 104.364 113.494 103.438 113.619 103.122C113.744 102.811 114.347 101.917 116.057 101.408C117.767 100.899 121.633 103.333 121.633 103.333L124.677 103.025L123.945 106.838H120.686C120.686 106.838 119.114 106.329 117.986 105.221H117.982Z" fill="#DF776C"/>
<path d="M135.796 103.353L135.283 106.838H119.655C118.35 106.838 117.197 105.993 116.801 104.752L116.118 102.597L114.937 98.8772L120.129 96.7666L121.309 99.6454L121.952 101.202L135.796 103.353Z" fill="#EA8F7A"/>
<path d="M121.309 99.6415C120.157 100.284 117.682 101.699 116.118 102.593L114.937 98.8733L120.129 96.7627L121.309 99.6415Z" fill="#DF776C"/>
<path d="M113.461 100.782C113.489 100.968 122.069 98.7316 122.069 98.7316C122.069 98.7316 120.06 91.1101 118.467 88.1504C116.874 85.1908 114.464 86.0399 114.084 86.4927C113.704 86.9456 111.601 88.6033 113.461 100.777V100.782Z" fill="#ADADAD"/>
<path d="M139.116 105.221C139.116 105.221 139.936 106.462 140.409 106.85C140.882 107.238 141.113 106.531 141.02 106.135C141.02 106.135 141.303 106.672 141.715 106.713C142.128 106.753 142.144 105.888 142.043 105.532C142.043 105.532 142.54 106.228 142.928 106.236C143.32 106.244 142.908 104.55 142.257 103.688C141.606 102.831 140.903 102.641 140.903 102.641C140.903 102.641 141.796 102.605 142.366 103.232C142.936 103.854 143.13 104.315 143.591 104.339C144.052 104.364 143.604 103.438 143.478 103.122C143.353 102.811 142.75 101.917 141.04 101.408C139.33 100.899 135.464 103.333 135.464 103.333L132.42 103.025L133.152 106.838H136.411C136.411 106.838 137.983 106.329 139.111 105.221H139.116Z" fill="#EA8F7A"/>
<path d="M140.83 105.702C140.83 105.702 140.474 104.922 139.722 104.335" stroke="#BE494F" stroke-miterlimit="10" stroke-linecap="round"/>
<path d="M141.958 105.2C141.958 105.2 141.436 104.052 140.684 103.466" stroke="#BE494F" stroke-miterlimit="10" stroke-linecap="round"/>
<path d="M60.0095 124.438L56.5081 147.885H54.1509L57.7251 124.438H60.0095Z" fill="#149FBE"/>
<path d="M58.2468 123.047H55.93L54.903 116.182L54.5229 113.647H56.8114L57.1996 116.182L58.2468 123.047Z" fill="#149FBE"/>
<path d="M68.9126 123.047H66.5959L65.5729 116.182L65.1929 113.647H67.4813L67.8655 116.182L68.9126 123.047Z" fill="#149FBE"/>
<path d="M66.8709 124.438L63.3694 147.885H61.0122L64.5864 124.438H66.8709Z" fill="#008B9A"/>
<path d="M81.7417 124.438L85.2431 147.885H87.6004L84.0261 124.438H81.7417Z" fill="#008B9A"/>
<path d="M71.9492 124.438L75.4507 147.885H77.8079L74.2337 124.438H71.9492Z" fill="#149FBE"/>
<path d="M56.8114 113.647L57.1996 116.182H54.903L54.5229 113.647H56.8114Z" fill="#008B9A"/>
<path d="M67.8655 116.182H65.5729L65.1929 113.647H67.4813L67.8655 116.182Z" fill="#FDC25E"/>
<path d="M65.4314 98.978H49.4121L52.0038 113.987H68.0231L65.4314 98.978Z" fill="#008B9A"/>
<path d="M67.2102 98.978H51.1909L53.7826 113.987H69.8019L67.2102 98.978Z" fill="#149FBE"/>
<path d="M85.4577 125.368H54.2925C53.3463 125.368 52.5781 124.6 52.5781 123.654C52.5781 122.708 53.3463 121.939 54.2925 121.939H85.4577C86.4038 121.939 87.1721 122.708 87.1721 123.654C87.1721 124.6 86.4038 125.368 85.4577 125.368Z" fill="#149FBE"/>
<path d="M69.8793 66.2118L68.7876 65.6862C68.7876 65.6862 65.5248 65.5447 64.7687 69.5111C64.0611 73.2147 64.1905 77.4762 64.9466 80.3631C65.3226 81.7985 66.6083 82.8052 68.0922 82.8052H78.1113C78.7825 82.8052 78.831 81.9764 78.7381 81.3092C78.455 79.227 80.4119 75.4951 78.5723 70.069C78.4308 69.6526 78.3054 69.7213 78.3054 69.7213L69.8793 66.2118Z" fill="#58110D"/>
<path d="M74.1449 88.7606C76.0735 87.7094 76.3646 85.2552 76.3646 85.2552L75.9562 84.026C75.9562 84.026 75.9117 83.9613 75.843 83.836C75.5721 83.3265 74.905 81.8103 75.1395 79.4693C75.4306 76.5501 70.4089 78.5353 70.4089 78.5353C70.4089 78.5353 70.2027 79.8332 69.948 81.1836C69.7539 82.2106 69.5356 83.2618 69.3577 83.7915C68.9493 85.0206 72.2203 89.8078 74.1449 88.7566V88.7606Z" fill="#F4AC96"/>
<path d="M69.9438 81.188C70.8172 82.2797 72.6609 83.9131 75.8429 83.8404C75.572 83.3309 74.9049 81.8147 75.1394 79.4737C75.4305 76.5545 70.4088 78.5397 70.4088 78.5397C70.4088 78.5397 70.2026 79.8376 69.9479 81.188H69.9438Z" fill="#DF776C"/>
<path d="M80.4765 75.0138C80.5533 75.782 79.7608 76.4896 78.7096 76.5947C77.6583 76.6999 76.7446 76.1581 76.6677 75.3899C76.5909 74.6216 77.3834 73.9141 78.4346 73.8089C79.4859 73.7038 80.3996 74.2456 80.4765 75.0138Z" fill="#DF776C"/>
<path d="M74.6259 81.8754C76.2189 81.7581 78.1273 79.5869 78.7176 76.4332C78.8147 75.9116 78.8753 75.4062 78.8996 74.917C78.94 74.0922 78.8834 73.3239 78.7338 72.6528C78.4467 71.3185 77.812 70.3805 76.9427 70.1904C72.8347 69.2807 70.3401 69.7902 68.8602 71.0031C67.8211 71.8562 67.2834 73.053 67.0367 74.355C66.4464 77.5087 70.522 82.1786 74.6178 81.8794L74.6259 81.8754Z" fill="#F4AC96"/>
<path d="M68.1325 74.9166C68.4924 72.891 71.4561 72.3168 74.3187 72.2602C77.1813 72.1996 77.8808 71.7912 77.8808 71.7912C78.2123 71.9812 78.5034 72.3087 78.7379 72.6484C78.4509 71.3141 77.8161 70.3761 76.9468 70.186C72.8389 69.2763 70.3442 69.7858 68.8644 70.9987C67.6271 73.3155 67.8899 76.2832 68.1325 74.9166Z" fill="#DF776C"/>
<path d="M67.7485 76.9263L67.7768 76.9424C67.7768 76.9424 67.7526 76.995 67.7485 76.9263Z" fill="#58110D"/>
<path d="M77.3268 71.1607H77.3147C77.0801 71.2254 76.8214 71.2658 76.5343 71.2901C72.018 71.6782 68.8279 71.8723 68.2012 74.6015C67.809 76.332 67.7403 76.805 67.7443 76.9223L65.8642 76.0045C65.8642 76.0045 64.6189 73.8737 65.1647 69.507C65.7065 65.1362 68.7834 65.6861 68.7834 65.6861C68.8966 65.6174 71.2134 64.3438 75.0909 65.023C78.8066 65.678 80.7837 70.259 77.3187 71.1607H77.3268Z" fill="#58110D"/>
<path d="M65.0154 76.4211C64.9386 77.1893 65.7311 77.8968 66.7823 78.002C67.8335 78.1071 68.7473 77.5653 68.8241 76.7971C68.9009 76.0289 68.1085 75.3213 67.0572 75.2162C66.006 75.111 65.0922 75.6528 65.0154 76.4211Z" fill="#F4AC96"/>
<path d="M77.3269 71.1607C77.4684 71.0919 79.1545 70.2631 77.3593 67.4045C75.4872 64.4287 68.7876 65.6861 68.7876 65.6861C68.9008 65.6174 71.2176 64.3438 75.095 65.023C78.8108 65.678 80.7879 70.259 77.3229 71.1607H77.3269Z" fill="#842020"/>
<path d="M84.3335 117.674L88.4091 118.313L91.5224 143.664L95.8284 143.316L95.1815 113.833C95.137 112.579 94.2839 111.504 93.075 111.181L86.9212 109.527L84.3375 117.678L84.3335 117.674Z" fill="#DF776C"/>
<path d="M95.7152 142.398L95.8406 143.417C95.8406 143.417 102.447 144.549 102.67 147.885H94.757L93.8755 147.299L93.5804 147.885H90.835C90.835 147.885 90.7865 145.544 91.5952 144.343L91.486 143.365L95.7193 142.398H95.7152Z" fill="#DF776C"/>
<path d="M102.67 147.885H94.7569L93.8715 147.295L93.5763 147.885H90.8309C90.8309 147.885 90.7946 146.409 91.1948 145.204C91.6638 145.455 93.2084 146.106 96.2287 145.92C98.788 145.766 99.6897 145.152 100.001 144.784C101.372 145.487 102.572 146.49 102.665 147.885H102.67Z" fill="#264066"/>
<path d="M81.75 122.433H82.6799L84.0951 143.749L88.4092 143.418L90.8352 117.848C90.8715 116.498 89.9295 115.313 88.6073 115.046L83.3632 113.987L81.75 122.437V122.433Z" fill="#F4AC96"/>
<path d="M95.2384 147.885H87.3258L86.4403 147.295L86.1451 147.885H83.3998C83.3998 147.885 83.3634 146.409 83.7637 145.204C83.8648 144.905 83.9901 144.618 84.1518 144.376L84.071 143.373L88.5104 142.342L88.4053 143.413C88.4053 143.413 90.6534 143.797 92.5739 144.784C93.9445 145.487 95.1454 146.49 95.2384 147.885Z" fill="#F4AC96"/>
<path d="M95.2384 147.885H87.3258L86.4403 147.295L86.1451 147.885H83.3998C83.3998 147.885 83.3634 146.41 83.7637 145.205C84.2327 145.455 85.7772 146.106 88.7975 145.92C91.3569 145.767 92.2585 145.152 92.5698 144.784C93.9405 145.488 95.1413 146.49 95.2343 147.885H95.2384Z" fill="#2E4A79"/>
<path d="M79.2111 86.0602C79.2111 86.0602 80.6061 86.9901 81.6492 90.2409C82.6964 93.4957 84.0873 96.3988 84.6129 96.6899C85.1345 96.981 91.4985 90.346 91.4985 90.346L93.0633 93.0631C93.0633 93.0631 90.0713 98.4891 87.3987 101.279C84.7261 104.069 83.9134 103.834 83.1573 103.543C82.4013 103.252 78.8594 99.6778 78.8594 99.6778L79.2071 86.0562L79.2111 86.0602Z" fill="#F4AC96"/>
<path d="M91.5914 90.7057C91.4055 90.4065 91.3448 90.0426 91.4257 89.699C91.6561 88.7326 92.1696 86.7151 92.6386 85.6355C93.2694 84.184 93.6211 84.1233 93.7869 84.1395C93.9567 84.1557 94.3247 84.4306 93.1723 87.2164C93.1723 87.2164 94.0093 86.4118 94.4096 87.3498C94.4096 87.3498 95.194 87.176 95.3921 88.0938C95.3921 88.0938 96.318 88.6639 96.0956 89.7798C95.8732 90.8958 95.1818 90.2771 95.1818 90.2771C95.1818 90.2771 95.5336 91.5589 94.4136 92.3271C93.2936 93.0953 93.0632 93.067 93.0632 93.067L91.5874 90.7057H91.5914Z" fill="#F4AC96"/>
<path d="M91.7979 89.8727C91.7979 89.8727 93.0836 88.1139 93.5364 87.8511C93.9893 87.5883 94.0742 87.9805 93.7467 88.6881C93.4192 89.3916 93.3949 89.6584 93.3949 89.6584C93.3949 89.6584 94.0014 90.8876 93.1038 91.7973" stroke="#BE494F" stroke-width="0.5" stroke-miterlimit="10" stroke-linecap="round"/>
<path d="M94.5469 87.5762C94.5469 87.5762 94.5873 89.153 94.1183 89.6503C93.6493 90.1477 93.4795 89.5291 93.4957 89.2986" stroke="#BE494F" stroke-width="0.5" stroke-miterlimit="10" stroke-linecap="round"/>
<path d="M95.3802 88.2031C95.3802 88.2031 95.3641 89.5333 94.9234 89.8649C94.4826 90.1964 94.1834 89.7396 94.2239 89.505" stroke="#BE494F" stroke-width="0.5" stroke-miterlimit="10" stroke-linecap="round"/>
<path d="M81.0344 93.8675C80.7433 89.6302 79.8134 87.1558 79.502 86.4401C79.4737 86.339 79.4414 86.2622 79.401 86.2137C78.5559 85.2191 75.9844 84.0789 75.9844 84.0789C75.6407 85.7285 74.1084 87.3377 74.1084 87.3377C71.8886 86.7838 69.3495 83.3794 69.3495 83.3794C69.3495 83.3794 64.8776 84.4468 63.7092 85.6274C62.5407 86.8081 62.2576 105.249 66.1998 106.652C70.1419 108.055 79.1584 106.887 79.1584 106.887C79.1584 104.841 78.6893 102.37 78.7338 100.05C78.7338 99.985 78.7338 99.9203 78.7379 99.8556C80.4158 99.1723 81.3255 98.1372 81.0344 93.8716V93.8675Z" fill="#F2819F"/>
<path d="M74.1085 87.3336C74.1085 87.3336 72.8228 88.6841 70.4858 88.959C68.1488 89.2339 68.3428 83.6341 68.7714 83.3753C69.2 83.1165 69.5356 83.2985 69.5356 83.2985C69.5356 83.2985 71.0963 85.5222 74.1045 87.3336H74.1085Z" fill="#FFD5E3"/>
<path d="M74.1085 87.3334C74.1085 87.3334 75.5398 88.1623 77.048 88.3928C78.5601 88.6273 76.8539 84.4102 76.5749 84.1918C76.2959 83.9735 75.9644 84.0261 75.9644 84.0261C75.9644 84.0261 75.5843 85.4857 74.1045 87.3334H74.1085Z" fill="#FFD5E3"/>
<path d="M63.6809 101.247C63.6809 101.247 63.313 105.642 62.4033 107.837C61.4936 110.033 59.5851 120.056 65.1567 121.633C70.7323 123.209 82.8055 122.627 82.8055 122.627C82.8055 122.627 83.978 112.964 91.3326 111.051C91.7531 110.942 91.7491 110.344 91.3326 110.235L79.2555 107.069L77.711 102.067L63.6809 101.247Z" fill="#F2819F"/>
<path d="M74.8769 89.052C74.8769 89.3026 74.6747 89.5048 74.424 89.5048C74.1734 89.5048 73.9712 89.3026 73.9712 89.052C73.9712 88.8013 74.1734 88.5991 74.424 88.5991C74.6747 88.5991 74.8769 88.8013 74.8769 89.052Z" fill="#FFD5E3"/>
<path d="M74.8769 90.8591C74.8769 91.1098 74.6747 91.3119 74.424 91.3119C74.1734 91.3119 73.9712 91.1098 73.9712 90.8591C73.9712 90.6084 74.1734 90.4062 74.424 90.4062C74.6747 90.4062 74.8769 90.6084 74.8769 90.8591Z" fill="#FFD5E3"/>
<path d="M71.5207 106.838C71.4519 106.838 71.367 106.838 71.274 106.838L68.6985 106.648C66.9922 106.499 65.1121 106.305 64.6512 106.236C63.8587 106.123 58.9139 105.52 58.5702 104.538C58.2346 103.555 58.7238 99.1805 59.8155 94.3852C60.9112 89.5899 62.4962 86.61 63.1754 85.854C63.8547 85.0979 65.5528 85.021 66.6081 87.6289C67.6675 90.2328 66.127 94.4458 65.2213 96.2936C64.3156 98.1414 63.4059 101.53 63.4059 101.53L70.1824 103.745L70.4088 103.818L71.5207 106.838Z" fill="#F4AC96"/>
<path d="M78.6813 104.57C78.2648 104.55 78.0829 104.129 77.5653 103.559C77.0478 102.993 76.2351 103.026 76.2351 103.026C76.2351 103.026 76.874 103.195 77.4643 103.976C78.0586 104.76 78.4306 106.305 78.0748 106.297C77.719 106.288 77.2662 105.654 77.2662 105.654C77.3632 105.973 77.343 106.766 76.971 106.729C76.595 106.693 76.3362 106.204 76.3362 106.204C76.4211 106.563 76.2109 107.21 75.7823 106.859C75.3537 106.503 74.6017 105.375 74.6017 105.375C73.5787 106.381 72.1434 106.842 72.1434 106.842H71.5126L69.1676 106.669L69.0503 103.911L71.2579 103.652H71.2822C71.2822 103.652 74.7998 101.433 76.3564 101.898C77.9131 102.363 78.4589 103.171 78.5762 103.458C78.6894 103.745 79.0977 104.586 78.6772 104.566L78.6813 104.57Z" fill="#F4AC96"/>
<path d="M76.2026 105.771C76.2026 105.771 75.8468 104.991 75.0947 104.404" stroke="#BE494F" stroke-width="0.5" stroke-miterlimit="10" stroke-linecap="round"/>
<path d="M77.3307 105.265C77.3307 105.265 76.8092 104.117 76.0571 103.531" stroke="#BE494F" stroke-width="0.5" stroke-miterlimit="10" stroke-linecap="round"/>
<path d="M161.277 108.444H159.154V147.886H161.277V108.444Z" fill="#AFB6E0"/>
<path d="M46.0441 108.444H43.9214V147.886H46.0441V108.444Z" fill="#96A3DA"/>
<path d="M169.165 106.604H73.793V109.523H169.165V106.604Z" fill="#AFB6E0"/>
<path d="M73.7929 106.604H41.2529V109.523H73.7929V106.604Z" fill="#96A3DA"/>
<path d="M70.1217 108.444H67.999V147.886H70.1217V108.444Z" fill="#96A3DA"/>
<path d="M106.256 105.492H81.3091V106.665H106.256V105.492Z" fill="#716DAA"/>
<path d="M106.26 105.492H89.4844V106.665H106.26V105.492Z" fill="#7E7AA5"/>
<path d="M109.506 95.3556L107.198 105.266H106.308L89.4844 105.488L91.9669 94.6157H108.742L109.506 95.3556Z" fill="#ADAAD6"/>
<path d="M109.511 95.3555H92.7352L90.4185 105.492H107.194L109.511 95.3555Z" fill="#9893BC"/>
<path d="M101.921 100.426C101.921 101.178 101.311 101.789 100.559 101.789C99.8068 101.789 99.1963 101.178 99.1963 100.426C99.1963 99.674 99.8068 99.0635 100.559 99.0635C101.311 99.0635 101.921 99.674 101.921 100.426Z" fill="#ADAAD6"/>
<path d="M104.028 54.4864V58.5903C104.028 60.8989 102.156 62.771 99.8474 62.771H91.6154C89.335 64.0971 85.5627 66.3048 85.3241 66.5393C85.1139 66.7495 86.1287 64.5176 86.9212 62.7022C84.9724 62.3424 83.4966 60.6402 83.4966 58.5903V54.4864C83.4966 52.1777 85.3646 50.3057 87.6773 50.3057H99.8434C102.152 50.3057 104.024 52.1777 104.024 54.4864H104.028Z" fill="#F2819F"/>
<path d="M95.2342 55.1494H92.7598V57.6239H95.2342V55.1494Z" fill="white"/>
<path d="M100.183 55.1494H97.7085V57.6239H100.183V55.1494Z" fill="white"/>
<path d="M90.2811 55.1494H87.8066V57.6239H90.2811V55.1494Z" fill="white"/>
<path d="M154.706 54.4864V58.5903C154.706 60.8989 152.834 62.771 150.525 62.771H142.293C140.013 64.0971 136.24 66.3048 136.002 66.5393C135.792 66.7495 136.806 64.5176 137.599 62.7022C135.65 62.3424 134.174 60.6402 134.174 58.5903V54.4864C134.174 52.1777 136.042 50.3057 138.355 50.3057H150.521C152.83 50.3057 154.702 52.1777 154.702 54.4864H154.706Z" fill="#CACAC8"/>
<path d="M145.911 55.1494H143.437V57.6239H145.911V55.1494Z" fill="white"/>
<path d="M150.865 55.1494H148.39V57.6239H150.865V55.1494Z" fill="white"/>
<path d="M140.963 55.1494H138.488V57.6239H140.963V55.1494Z" fill="white"/>
</g>
<defs>
<clipPath id="clip0_1095_1301">
<rect width="275.211" height="150" fill="white"/>
</clipPath>
</defs>
</svg>
