<svg width="40" height="40" viewBox="0 0 40 40" fill="none" xmlns="http://www.w3.org/2000/svg">
<mask id="mask0_1053_947" style="mask-type:luminance" maskUnits="userSpaceOnUse" x="0" y="0" width="40" height="40">
<path d="M0 0H40V40H0V0Z" fill="white"/>
</mask>
<g mask="url(#mask0_1053_947)">
<path d="M20.8178 24.1337C20.1221 23.4708 19.1123 23.2564 18.2073 23.5796C17.0517 23.9924 16.2803 25.0871 16.2803 26.3143V27.5542C16.2803 28.7972 17.2879 29.8049 18.5309 29.8049C19.3525 29.8049 20.1089 29.3571 20.5041 28.6368L21.2931 27.1987C21.8479 26.1874 21.6528 24.9294 20.8178 24.1337Z" stroke="#E67C00" stroke-width="1.8" stroke-miterlimit="10" stroke-linecap="round" stroke-linejoin="round"/>
<path d="M4.78418 27.6697C5.82332 20.1955 12.2397 14.4418 20 14.4418C27.7645 14.4418 34.1836 20.2016 35.2175 27.6817" stroke="#E67C00" stroke-width="1.8" stroke-miterlimit="10" stroke-linecap="round" stroke-linejoin="round"/>
<path d="M8.00879 20.2886H10.5917C12.0881 20.2886 13.3011 21.5016 13.3011 22.998C13.3011 23.8565 12.8942 24.6643 12.2043 25.1753C11.2297 25.8971 10.655 27.038 10.655 28.2508V28.6975" stroke="#E67C00" stroke-width="1.8" stroke-miterlimit="10" stroke-linecap="round" stroke-linejoin="round"/>
<path d="M10.6329 34.6781L6.08063 30.1258C5.10766 29.1529 4.56109 27.8332 4.56109 26.4573V21.4973C4.56109 20.5785 3.90031 19.7929 2.99508 19.6354C1.83914 19.4343 0.78125 20.324 0.78125 21.4973V25.9393C0.78125 29.1647 2.0625 32.258 4.3432 34.5387L9.01094 39.2065" stroke="#E67C00" stroke-width="1.8" stroke-miterlimit="10" stroke-linecap="round" stroke-linejoin="round"/>
<path d="M19.999 39.2064V39.2085C19.999 36.7658 19.0286 34.4231 17.3013 32.6959C16.0921 31.4867 14.452 30.8073 12.7419 30.8073L9.18967 27.2551C8.36389 26.4293 7.02514 26.4293 6.19936 27.2551C5.37365 28.0808 5.37365 29.4196 6.19936 30.2453L10.3172 34.3631" stroke="#E67C00" stroke-width="1.8" stroke-miterlimit="10" stroke-linecap="round" stroke-linejoin="round"/>
<path d="M33.1702 37.0244L30.9883 39.2064" stroke="#E67C00" stroke-width="1.8" stroke-miterlimit="10" stroke-linecap="round" stroke-linejoin="round"/>
<path d="M29.3662 34.6781L33.9185 30.1258C34.8914 29.1528 35.438 27.8332 35.438 26.4573V21.4973C35.438 20.5785 36.0988 19.7928 37.004 19.6353C38.16 19.4342 39.2179 20.324 39.2179 21.4973V25.9393C39.2179 27.9758 38.7071 29.9596 37.7564 31.7195" stroke="#E67C00" stroke-width="1.8" stroke-miterlimit="10" stroke-linecap="round" stroke-linejoin="round"/>
<path d="M20 39.2065V39.2086C20 36.7659 20.9704 34.4232 22.6977 32.6959C23.9069 31.4867 25.547 30.8073 27.257 30.8073L30.8093 27.2552C31.6351 26.4294 32.9738 26.4294 33.7996 27.2552C34.6253 28.0809 34.6253 29.4197 33.7996 30.2454L29.6818 34.3632" stroke="#E67C00" stroke-width="1.8" stroke-miterlimit="10" stroke-linecap="round" stroke-linejoin="round"/>
<path d="M20 4.98772V14.4419" stroke="#E67C00" stroke-width="1.8" stroke-miterlimit="10" stroke-linecap="round" stroke-linejoin="round"/>
<path d="M20 9.50177L21.7934 7.70833" stroke="#E67C00" stroke-width="1.8" stroke-miterlimit="10" stroke-linecap="round" stroke-linejoin="round"/>
<path d="M20 10.2899L17.4219 7.71182" stroke="#E67C00" stroke-width="1.8" stroke-miterlimit="10" stroke-linecap="round" stroke-linejoin="round"/>
<path d="M24.0801 3.64442C23.4723 1.97981 21.875 0.791451 20 0.791451C18.125 0.791451 16.5277 1.97981 15.9199 3.64442C14.2194 4.07044 12.96 5.60833 12.96 7.44083C12.96 9.60247 14.7123 11.3549 16.874 11.3549C18.1514 11.3549 19.2856 10.7427 20 9.79598C20.7144 10.7427 21.8486 11.3549 23.1261 11.3549C25.2877 11.3549 27.0401 9.60247 27.0401 7.44083C27.0401 5.60833 25.7806 4.07044 24.0801 3.64442Z" stroke="#E67C00" stroke-width="1.8" stroke-miterlimit="10" stroke-linecap="round" stroke-linejoin="round"/>
<path d="M8.14648 14.9711L10.3903 17.8185" stroke="#E67C00" stroke-width="1.8" stroke-miterlimit="10" stroke-linecap="round" stroke-linejoin="round"/>
<path d="M6.07824 8.05289C5.54246 7.33563 4.68676 6.87125 3.72262 6.87125C2.09973 6.87125 0.78418 8.1868 0.78418 9.80969C0.78418 10.7738 1.24855 11.6295 1.96582 12.1653C2.11746 14.1406 3.76715 15.6966 5.78137 15.6966C7.89559 15.6966 9.60949 13.9827 9.60949 11.8684C9.60949 9.85422 8.05356 8.20453 6.07824 8.05289Z" stroke="#E67C00" stroke-width="1.8" stroke-miterlimit="10" stroke-linecap="round" stroke-linejoin="round"/>
<path d="M31.8532 14.9711L29.6094 17.8185" stroke="#E67C00" stroke-width="1.8" stroke-miterlimit="10" stroke-linecap="round" stroke-linejoin="round"/>
<path d="M33.9219 8.05289C34.4577 7.33563 35.3134 6.87125 36.2775 6.87125C37.9004 6.87125 39.2159 8.1868 39.2159 9.80969C39.2159 10.7738 38.7516 11.6295 38.0343 12.1653C37.8827 14.1406 36.233 15.6966 34.2188 15.6966C32.1045 15.6966 30.3906 13.9827 30.3906 11.8684C30.3906 9.85422 31.9466 8.20453 33.9219 8.05289Z" stroke="#E67C00" stroke-width="1.8" stroke-miterlimit="10" stroke-linecap="round" stroke-linejoin="round"/>
<path d="M29.2351 28.7491C28.9974 28.2616 28.629 27.8397 28.1589 27.5367L26.5341 26.4896C25.1955 25.627 24.3867 24.1436 24.3867 22.5511C24.3867 19.9633 26.4845 17.8655 29.0722 17.8655H29.6084" stroke="#E67C00" stroke-width="1.8" stroke-miterlimit="10" stroke-linecap="round" stroke-linejoin="round"/>
</g>
</svg>
